<?xml version="1.0" standalone="no"?>
<!DOCTYPE svg PUBLIC "-//W3C//DTD SVG 20010904//EN"
 "http://www.w3.org/TR/2001/REC-SVG-20010904/DTD/svg10.dtd">
<svg version="1.0" xmlns="http://www.w3.org/2000/svg"
 width="512.000000pt" height="512.000000pt" viewBox="0 0 512.000000 512.000000"
 preserveAspectRatio="xMidYMid meet">
<metadata>
Created by potrace 1.14, written by Peter Selinger 2001-2017
</metadata>
<g transform="translate(0.000000,512.000000) scale(0.100000,-0.100000)"
fill="#000000" stroke="none">
<path d="M5 2560 l0 -2550 2555 0 2555 0 0 2550 0 2550 -2555 0 -2555 0 0
-2550z m2795 2345 c217 -27 378 -74 565 -165 286 -140 494 -325 682 -605 112
-168 176 -332 244 -625 9 -37 14 -167 17 -392 l3 -337 54 -30 c56 -32 112 -97
156 -181 l24 -45 0 -925 0 -925 -28 -56 c-15 -31 -45 -77 -68 -102 -43 -50
-139 -113 -193 -128 -26 -7 -35 -16 -44 -47 -7 -21 -23 -49 -37 -62 -24 -23
-30 -23 -186 -23 l-161 0 -32 32 -31 31 1 723 c0 397 4 981 10 1298 11 681 -3
619 135 619 55 0 90 4 95 11 8 14 7 456 -2 509 -28 182 -120 412 -222 559 -95
137 -254 292 -382 372 -78 50 -237 129 -258 129 -10 0 -26 6 -37 14 -25 17
-122 45 -196 55 -30 5 -65 13 -77 20 -34 18 -400 15 -445 -4 -20 -8 -49 -15
-65 -15 -26 0 -137 -30 -222 -60 -46 -17 -184 -83 -240 -116 -212 -124 -405
-338 -515 -571 -26 -54 -50 -105 -55 -113 -4 -9 -11 -31 -15 -50 -4 -19 -11
-39 -15 -45 -4 -5 -18 -59 -30 -120 -17 -83 -23 -161 -27 -321 -3 -116 -3
-223 1 -238 6 -26 7 -26 105 -26 83 0 100 -3 115 -19 15 -16 17 -61 19 -447 1
-300 5 -435 13 -449 16 -28 19 -327 5 -615 -6 -129 -11 -430 -11 -669 0 -432
0 -435 -22 -458 -21 -22 -27 -23 -188 -23 l-167 0 -27 26 c-18 18 -26 37 -26
61 0 18 -6 35 -13 37 -95 24 -158 52 -195 88 -57 54 -97 114 -119 179 -17 51
-18 107 -18 939 0 688 3 894 13 927 18 61 90 162 142 201 25 18 55 43 68 54
l24 22 -7 240 c-8 268 1 390 42 566 50 214 120 389 196 492 181 248 280 356
419 461 359 269 809 395 1228 342z m50 -2815 c0 -247 2 -281 16 -287 12 -5 15
-20 14 -72 -3 -91 -3 -91 25 -91 l25 0 0 116 c0 131 19 557 26 563 11 11 14
-21 19 -209 4 -112 9 -209 13 -214 12 -19 20 -240 10 -253 -6 -7 -21 -13 -33
-13 -22 0 -23 -3 -30 -147 -8 -178 -26 -325 -40 -330 -26 -8 -34 42 -41 255
-7 216 -7 222 -30 237 -13 8 -30 12 -38 9 -11 -4 -16 0 -16 14 0 26 18 38 26
18 18 -47 24 21 23 257 -1 269 7 427 22 427 5 0 9 -126 9 -280z m461 52 c-3
-122 -1 -142 12 -142 22 0 27 -22 27 -109 0 -52 5 -89 16 -110 11 -22 15 -48
11 -77 -3 -30 0 -50 11 -66 14 -19 16 -49 13 -183 -1 -88 -7 -164 -11 -169
-12 -12 -18 20 -29 144 l-8 105 -2 -100 c-5 -224 -6 -255 -16 -257 -13 -4 -23
125 -24 308 -1 110 -4 144 -15 153 -12 10 -15 58 -15 259 -1 283 6 395 23 389
8 -3 10 -46 7 -145z m-76 -339 c-9 -529 -9 -472 -3 -566 2 -42 0 -83 -4 -90
-4 -6 -9 17 -10 53 -1 36 -4 79 -6 95 -2 17 -6 99 -9 184 -4 140 -6 154 -23
158 -18 5 -19 15 -14 197 6 201 8 221 23 211 20 -12 31 35 26 114 -4 70 -2 81
12 81 15 0 16 -36 8 -437z m-835 327 c0 -5 -4 -10 -10 -10 -5 0 -10 5 -10 10
0 6 5 10 10 10 6 0 10 -4 10 -10z m13 -137 c10 -145 8 -358 -2 -369 -6 -5 -7
-44 -1 -100 9 -99 2 -251 -11 -260 -5 -3 -9 34 -10 83 -1 148 -6 214 -18 226
-14 14 -15 47 -1 47 6 0 10 73 10 198 0 195 6 272 20 272 4 0 10 -44 13 -97z
m994 55 c-3 -8 -6 -5 -6 6 -1 11 2 17 5 13 3 -3 4 -12 1 -19z m-1067 -29 c0
-11 -4 -18 -10 -14 -5 3 -7 12 -3 20 7 21 13 19 13 -6z m300 -204 c3 -196 5
-184 -27 -182 l-28 2 -5 -140 -5 -140 -8 107 c-5 59 -5 113 -2 119 4 5 4 26 0
45 -5 29 -9 33 -20 24 -30 -25 -45 -4 -40 57 2 32 4 76 4 97 1 63 15 31 22
-50 3 -41 9 -77 13 -81 12 -12 26 19 26 57 0 20 7 62 15 93 8 32 15 69 15 82
0 31 21 78 31 68 4 -5 8 -75 9 -158z m-810 -27 c4 -51 10 -100 14 -109 4 -9 0
-21 -9 -29 -13 -11 -15 -52 -15 -291 0 -253 -5 -312 -24 -263 -8 22 -9 765 0
787 13 35 26 -1 34 -95z m190 -18 c0 -71 -4 -130 -9 -130 -4 0 -11 -50 -13
-111 -5 -106 -17 -145 -37 -123 -5 5 -11 56 -13 114 -3 101 -2 105 20 115 21
9 22 15 22 122 0 61 3 118 6 127 16 42 24 5 24 -114z m1451 -15 c3 -93 2 -110
-11 -110 -12 0 -16 18 -18 90 -2 50 0 106 3 125 11 59 23 14 26 -105z m-1724
93 c-3 -7 -5 -2 -5 12 0 14 2 19 5 13 2 -7 2 -19 0 -25z m1640 0 c-3 -7 -5 -2
-5 12 0 14 2 19 5 13 2 -7 2 -19 0 -25z m-1789 -110 c4 -74 2 -91 -12 -107
-13 -14 -16 -28 -11 -55 4 -20 11 -39 16 -42 5 -3 9 -12 9 -21 0 -12 -3 -13
-14 -4 -11 9 -15 7 -19 -10 -9 -33 -24 -14 -31 41 -4 28 -9 57 -13 66 -4 10 2
17 16 21 20 5 21 12 21 112 0 59 3 111 7 115 14 14 26 -30 31 -116z m1935 42
c7 -50 16 -67 38 -73 26 -7 25 -53 -2 -67 -41 -22 -49 -7 -49 91 0 95 4 110
13 49z m-1856 -12 c-3 -7 -5 -2 -5 12 0 14 2 19 5 13 2 -7 2 -19 0 -25z m1377
-22 c-3 -9 -10 -16 -15 -16 -5 0 -4 9 3 20 14 22 21 20 12 -4z m76 -20 c0 -12
-5 -7 -19 24 -11 24 -11 24 3 6 9 -11 16 -24 16 -30z m-1043 -13 c-3 -10 -5
-2 -5 17 0 19 2 27 5 18 2 -10 2 -26 0 -35z m1607 -25 c10 -32 22 -61 27 -64
6 -3 7 -60 2 -147 -4 -78 -6 -187 -4 -242 1 -55 0 -97 -4 -93 -4 3 -10 116
-13 250 l-7 243 -30 0 c-24 0 -31 5 -33 24 -4 27 28 106 38 94 4 -4 15 -34 24
-65z m-2017 40 c-3 -8 -6 -5 -6 6 -1 11 2 17 5 13 3 -3 4 -12 1 -19z m530 -20
c-3 -8 -6 -5 -6 6 -1 11 2 17 5 13 3 -3 4 -12 1 -19z m-527 -18 c0 -5 -5 -10
-11 -10 -5 0 -7 5 -4 10 3 6 8 10 11 10 2 0 4 -4 4 -10z m-6 -46 c5 -12 14
-15 40 -10 25 5 35 3 40 -9 7 -20 -3 -396 -12 -410 -11 -17 -20 45 -22 160 -1
111 -18 198 -19 104 -1 -46 -22 -82 -36 -60 -9 16 -14 241 -5 241 4 0 11 -7
14 -16z m434 -11 c9 -19 0 -446 -13 -630 -6 -80 -11 -103 -22 -103 -13 0 -14
27 -9 188 4 103 3 263 -1 355 -5 93 -5 177 -1 188 9 24 34 25 46 2z m107 -351
c-6 -379 -11 -462 -26 -462 -5 0 -9 164 -9 409 0 409 2 431 33 414 4 -3 5
-165 2 -361z m79 173 c0 -190 -11 -335 -23 -335 -9 0 -22 500 -14 513 3 4 12
7 21 5 15 -3 17 -23 16 -183z m184 12 c2 -165 -4 -227 -24 -234 -15 -5 -26
377 -12 395 27 32 33 3 36 -161z m-576 61 c2 -31 -1 -54 -6 -51 -13 8 -26 -18
-27 -57 l-1 -35 -10 28 c-8 21 -5 36 11 70 12 25 22 66 22 98 2 59 7 36 11
-53z m1256 -13 c3 -118 -4 -215 -17 -215 -5 0 -11 39 -14 88 -11 157 -18 194
-38 199 -11 3 -19 11 -19 18 0 15 24 24 60 22 25 -2 25 -3 28 -112z m-413 85
c3 -11 6 -50 6 -87 0 -37 5 -73 10 -80 7 -8 8 -36 2 -80 l-8 -68 -7 80 c-3 44
-9 111 -12 148 -4 38 -11 77 -16 88 -8 15 -7 19 4 19 8 0 17 -9 21 -20z m-60
0 c-3 -5 -10 -10 -16 -10 -5 0 -9 5 -9 10 0 6 7 10 16 10 8 0 12 -4 9 -10z
m387 -147 c-5 -145 -9 -153 -11 -20 0 64 3 117 7 117 4 0 6 -44 4 -97z m-710
-105 c-5 -134 -19 -171 -21 -54 -1 91 6 156 18 156 3 0 4 -46 3 -102z m461
-10 c-6 -53 -23 -66 -23 -17 0 28 17 75 25 67 2 -1 1 -24 -2 -50z m829 36
c-18 -12 -22 -25 -23 -72 l-2 -57 -7 50 c-7 53 10 94 40 95 9 0 7 -5 -8 -16z
m-1785 -26 c-3 -7 -5 -2 -5 12 0 14 2 19 5 13 2 -7 2 -19 0 -25z m713 -45 c0
-55 -5 -54 -14 5 -4 26 -2 42 4 42 5 0 10 -21 10 -47z m986 3 c5 -21 4 -27 -5
-22 -6 4 -11 16 -11 27 0 10 -5 19 -11 19 -5 0 -7 5 -3 11 9 15 21 0 30 -35z
m-59 -18 c-3 -8 -6 -5 -6 6 -1 11 2 17 5 13 3 -3 4 -12 1 -19z m-1000 -35 c-3
-10 -5 -2 -5 17 0 19 2 27 5 18 2 -10 2 -26 0 -35z m550 15 c-3 -7 -5 -2 -5
12 0 14 2 19 5 13 2 -7 2 -19 0 -25z m372 -10 c-1 -37 -2 -39 -9 -18 -12 36
-12 60 0 60 6 0 10 -19 9 -42z m-455 0 c3 -13 6 -30 6 -37 0 -23 -16 0 -24 32
-8 32 9 37 18 5z m526 -7 c0 -6 -4 -13 -10 -16 -5 -3 -10 1 -10 9 0 9 5 16 10
16 6 0 10 -4 10 -9z m-928 -23 c-7 -7 -12 -8 -12 -2 0 14 12 26 19 19 2 -3 -1
-11 -7 -17z m465 -10 c-3 -8 -6 -5 -6 6 -1 11 2 17 5 13 3 -3 4 -12 1 -19z
m260 -73 c-7 -13 -14 -20 -15 -14 -5 14 6 39 17 39 5 0 4 -11 -2 -25z"/>
</g>
</svg>
